Coordinates
version=1
nRows=16
nColumns=38
inDegrees=no

Units are S.I. units (second, meters, Newtons, ...)
If the header above contains a line with 'inDegrees', this indicates whether rotational values are in degrees (yes) or radians (no).

endheader
time	pelvis_tilt	pelvis_list	pelvis_rotation	pelvis_tx	pelvis_ty	pelvis_tz	hip_flexion_r	hip_adduction_r	hip_rotation_r	knee_angle_r	ankle_angle_r	subtalar_angle_r	mtp_angle_r	hip_flexion_l	hip_adduction_l	hip_rotation_l	knee_angle_l	ankle_angle_l	subtalar_angle_l	mtp_angle_l	lumbar_extension	lumbar_bending	lumbar_rotation	arm_flex_r	arm_add_r	arm_rot_r	elbow_flex_r	pro_sup_r	wrist_flex_r	wrist_dev_r	arm_flex_l	arm_add_l	arm_rot_l	elbow_flex_l	pro_sup_l	wrist_flex_l	wrist_dev_l
50	3.09765	1.44731	-1.49388	0.615809	0.368364	1.03787	-0.11923	-0.048347	-0.0900002	0.21396	-0.315887	0	0	-0.249921	-0.0510076	-0.292969	0.00262948	-0.480114	0	0	-0.300552	-0.00797351	-0.0373422	0.163111	-0.422674	0.870938	0.550743	0.681507	0	0	0.14983	-0.452282	0.834034	0.616744	0.867868	0	0
50.01	3.09543	1.44858	-1.49159	0.615793	0.368329	1.03779	-0.117709	-0.0480634	-0.0888677	0.214192	-0.315813	0	0	-0.248486	-0.0512012	-0.292688	0.00249982	-0.480752	0	0	-0.297885	-0.00730289	-0.0359743	0.158287	-0.419962	0.855999	0.548431	0.726557	0	0	0.150677	-0.449706	0.833313	0.612232	0.87975	0	0
50.02	3.09298	1.44884	-1.4891	0.61577	0.368227	1.03778	-0.117257	-0.0477086	-0.0878319	0.214377	-0.315687	0	0	-0.248151	-0.0514683	-0.292608	0.00233987	-0.480793	0	0	-0.296306	-0.00649353	-0.0353755	0.157977	-0.419746	0.858737	0.547633	0.73228	0	0	0.151565	-0.448427	0.836026	0.609691	0.881314	0	0
50.03	3.09199	1.44774	-1.48784	0.61573	0.368111	1.03785	-0.118595	-0.0473895	-0.0876906	0.21392	-0.316291	0	0	-0.249379	-0.0516994	-0.292655	0.0019197	-0.481163	0	0	-0.296253	-0.00569992	-0.0361605	0.161753	-0.421479	0.876917	0.548156	0.707887	0	0	0.151242	-0.44807	0.837134	0.60905	0.87998	0	0
50.04	3.09157	1.44808	-1.48712	0.61569	0.368045	1.03782	-0.118251	-0.0472872	-0.0874222	0.213836	-0.316311	0	0	-0.248952	-0.0517756	-0.292371	0.00180819	-0.4811	0	0	-0.294937	-0.00530642	-0.0359316	0.16073	-0.42095	0.876806	0.548037	0.715023	0	0	0.15138	-0.447205	0.83785	0.607801	0.881714	0	0
50.05	3.09155	1.44846	-1.48665	0.61564	0.367971	1.0378	-0.117974	-0.0472374	-0.0873777	0.213537	-0.316359	0	0	-0.248351	-0.0518598	-0.29206	0.00189872	-0.481026	0	0	-0.293647	-0.00497732	-0.0358091	0.159449	-0.420347	0.875508	0.548009	0.720769	0	0	0.151333	-0.446351	0.837946	0.606912	0.882556	0	0
50.06	3.09166	1.44906	-1.48626	0.615595	0.367895	1.03778	-0.11753	-0.0472081	-0.0875662	0.213086	-0.31647	0	0	-0.247444	-0.051927	-0.291729	0.00205383	-0.481034	0	0	-0.292115	-0.00483842	-0.0357267	0.158204	-0.419443	0.874016	0.547499	0.724012	0	0	0.151153	-0.445499	0.837631	0.606098	0.883175	0	0
50.07	3.09224	1.45217	-1.48662	0.615597	0.367868	1.03759	-0.11376	-0.0475473	-0.0868134	0.214101	-0.310715	0	0	-0.243532	-0.0517758	-0.291379	0.00311214	-0.477976	0	0	-0.287766	-0.00525999	-0.0335261	0.151418	-0.416457	0.853679	0.546454	0.749243	0	0	0.153005	-0.444005	0.842411	0.603414	0.881546	0	0
50.08	3.09247	1.45236	-1.48641	0.615535	0.367771	1.03764	-0.113741	-0.0475816	-0.0871584	0.213579	-0.316502	0	0	-0.243321	-0.0517136	-0.291128	0.00260224	-0.480953	0	0	-0.287075	-0.00489672	-0.0351889	0.153041	-0.416161	0.859681	0.54625	0.738916	0	0	0.14919	-0.441686	0.828452	0.602152	0.898579	0	0
50.09	3.09284	1.45344	-1.48634	0.61551	0.36768	1.0376	-0.112542	-0.0476985	-0.0872918	0.213649	-0.316818	0	0	-0.241908	-0.0516604	-0.290838	0.00271838	-0.481071	0	0	-0.285106	-0.00484387	-0.0350219	0.1516	-0.415216	0.857172	0.545985	0.738925	0	0	0.148851	-0.440251	0.826739	0.600412	0.902078	0	0
50.1	3.09244	1.45454	-1.48541	0.615479	0.367579	1.03755	-0.111602	-0.0476403	-0.0874961	0.212956	-0.317376	0	0	-0.24043	-0.0517344	-0.290345	0.00286752	-0.481195	0	0	-0.283233	-0.00466197	-0.0348761	0.150181	-0.414333	0.854599	0.545821	0.738511	0	0	0.148505	-0.438779	0.824985	0.598748	0.904337	0	0
50.11	3.09278	1.45586	-1.48509	0.61544	0.367523	1.03749	-0.111126	-0.047571	-0.087978	0.210733	-0.31794	0	0	-0.238731	-0.0517176	-0.289722	0.00304486	-0.481328	0	0	-0.281104	-0.0045451	-0.0348278	0.148568	-0.413426	0.851789	0.545699	0.737417	0	0	0.148029	-0.437138	0.823251	0.596825	0.905252	0	0
50.12	3.09417	1.45692	-1.48573	0.6154	0.367497	1.03745	-0.11055	-0.0476555	-0.0889452	0.209635	-0.318091	0	0	-0.237376	-0.0516142	-0.289119	0.00316226	-0.481443	0	0	-0.279438	-0.00457068	-0.0349573	0.147078	-0.412443	0.849082	0.545613	0.735683	0	0	0.147467	-0.435937	0.821989	0.595597	0.904734	0	0
50.13	3.09432	1.45662	-1.48605	0.615372	0.367316	1.03752	-0.11067	-0.0476653	-0.0885683	0.209632	-0.317997	0	0	-0.237671	-0.0514584	-0.289313	0.00287605	-0.481718	0	0	-0.279955	-0.00450184	-0.0342799	0.14653	-0.411879	0.846994	0.545809	0.737162	0	0	0.147853	-0.435627	0.823656	0.595747	0.900406	0	0
50.14	3.09392	1.45689	-1.48578	0.615339	0.367146	1.03752	-0.110027	-0.0476915	-0.0877812	0.209994	-0.318144	0	0	-0.237178	-0.0513608	-0.289364	0.00293009	-0.481821	0	0	-0.280408	-0.0045772	-0.0339694	0.146105	-0.411148	0.844309	0.546157	0.73606	0	0	0.146716	-0.435313	0.820116	0.596896	0.899949	0	0
50.15	3.09062	1.45997	-1.48268	0.615393	0.367102	1.03731	-0.106047	-0.0475529	-0.0860941	0.21125	-0.31786	0	0	-0.23311	-0.0516432	-0.289502	0.00446721	-0.480632	0	0	-0.27495	-0.00419661	-0.03394	0.145292	-0.409727	0.845174	0.544165	0.726663	0	0	0.144722	-0.433139	0.818573	0.593694	0.892592	0	0
